HIERARCHY
ROOT hip
{
  OFFSET 0 0 0
  CHANNELS 6 Xposition Yposition Zposition Zrotation Yrotation Xrotation
  JOINT abdomen
  {
    OFFSET 0 20.6881 -0.73152
    CHANNELS 3 Zrotation Xrotation Yrotation
    JOINT chest
    {
      OFFSET 0 11.7043 -0.48768
      CHANNELS 3 Zrotation Xrotation Yrotation
      JOINT neck
      {
        OFFSET 0 22.1894 -2.19456
        CHANNELS 3 Zrotation Xrotation Yrotation
        JOINT head
        {
          OFFSET -0.24384 7.07133 1.2192
          CHANNELS 3 Zrotation Xrotation Yrotation
          JOINT leftEye
          {
            OFFSET 4.14528 8.04674 8.04672
            CHANNELS 3 Zrotation Xrotation Yrotation
            End Site
            {
              OFFSET 1 0 0
            }
          }
          JOINT rightEye
          {
            OFFSET -3.6576 8.04674 8.04672
            CHANNELS 3 Zrotation Xrotation Yrotation
            End Site
            {
              OFFSET 1 0 0
            }
          }
        }
      }
      JOINT rCollar
      {
        OFFSET -2.68224 19.2634 -4.8768
        CHANNELS 3 Zrotation Xrotation Yrotation
        JOINT rShldr
        {
          OFFSET -8.77824 -1.95073 1.46304
          CHANNELS 3 Zrotation Xrotation Yrotation
          JOINT rForeArm
          {
            OFFSET -28.1742 -1.7115 0.48768
            CHANNELS 3 Zrotation Xrotation Yrotation
            JOINT rHand
            {
              OFFSET -22.5879 0.773209 7.07136
              CHANNELS 3 Zrotation Xrotation Yrotation
              JOINT rThumb1
              {
                OFFSET -1.2192 -0.487915 3.41376
                CHANNELS 3 Zrotation Xrotation Yrotation
                JOINT rThumb2
                {
                  OFFSET -3.37035 -0.52449 3.41376
                  CHANNELS 3 Zrotation Xrotation Yrotation
                  End Site
                  {
                    OFFSET -1.78271 -1.18214 1.43049
                  }
                }
              }
              JOINT rIndex1
              {
                OFFSET -7.75947 0.938293 5.60832
                CHANNELS 3 Zrotation Xrotation Yrotation
                JOINT rIndex2
                {
                  OFFSET -2.54057 -0.884171 1.56538
                  CHANNELS 3 Zrotation Xrotation Yrotation
                  End Site
                  {
                    OFFSET -1.62519 -0.234802 1.16502
                  }
                }
              }
              JOINT rMid1
              {
                OFFSET -8.24714 1.18213 3.41376
                CHANNELS 3 Zrotation Xrotation Yrotation
                JOINT rMid2
                {
                  OFFSET -3.10165 -0.590103 1.0647
                  CHANNELS 3 Zrotation Xrotation Yrotation
                  End Site
                  {
                    OFFSET -2.48547 -0.328903 0.83742
                  }
                }
              }
              JOINT rRing1
              {
                OFFSET -8.82822 0.546677 1.51678
                CHANNELS 3 Zrotation Xrotation Yrotation
                JOINT rRing2
                {
                  OFFSET -2.60934 -0.819778 -0.0198488
                  CHANNELS 3 Zrotation Xrotation Yrotation
                  End Site
                  {
                    OFFSET -2.33842 -0.294052 0.168128
                  }
                }
              }
              JOINT rPinky1
              {
                OFFSET -8.27202 -0.0477905 -0.4584
                CHANNELS 3 Zrotation Xrotation Yrotation
                JOINT rPinky2
                {
                  OFFSET -1.82734 -0.647385 -0.700984
                  CHANNELS 3 Zrotation Xrotation Yrotation
                  End Site
                  {
                    OFFSET -1.69225 -0.51767 -0.607171
                  }
                }
              }
            }
          }
        }
      }
      JOINT lCollar
      {
        OFFSET 2.68224 19.2634 -4.8768
        CHANNELS 3 Zrotation Xrotation Yrotation
        JOINT lShldr
        {
          OFFSET 8.77824 -1.95073 1.46304
          CHANNELS 3 Zrotation Xrotation Yrotation
          JOINT lForeArm
          {
            OFFSET 28.1742 -1.7115 0.48768
            CHANNELS 3 Zrotation Xrotation Yrotation
            JOINT lHand
            {
              OFFSET 22.5879 0.773209 7.07136
              CHANNELS 3 Zrotation Xrotation Yrotation
              JOINT lThumb1
              {
                OFFSET 1.2192 -0.487915 3.41376
                CHANNELS 3 Zrotation Xrotation Yrotation
                JOINT lThumb2
                {
                  OFFSET 3.37035 -0.52449 3.41376
                  CHANNELS 3 Zrotation Xrotation Yrotation
                  End Site
                  {
                    OFFSET 1.78271 -1.18214 1.43049
                  }
                }
              }
              JOINT lIndex1
              {
                OFFSET 7.75947 0.938293 5.60832
                CHANNELS 3 Zrotation Xrotation Yrotation
                JOINT lIndex2
                {
                  OFFSET 2.54057 -0.884171 1.56538
                  CHANNELS 3 Zrotation Xrotation Yrotation
                  End Site
                  {
                    OFFSET 1.62519 -0.234802 1.16502
                  }
                }
              }
              JOINT lMid1
              {
                OFFSET 8.24714 1.18213 3.41376
                CHANNELS 3 Zrotation Xrotation Yrotation
                JOINT lMid2
                {
                  OFFSET 3.10165 -0.590103 1.0647
                  CHANNELS 3 Zrotation Xrotation Yrotation
                  End Site
                  {
                    OFFSET 2.48547 -0.328903 0.83742
                  }
                }
              }
              JOINT lRing1
              {
                OFFSET 8.82822 0.546677 1.51678
                CHANNELS 3 Zrotation Xrotation Yrotation
                JOINT lRing2
                {
                  OFFSET 2.60934 -0.819778 -0.0198488
                  CHANNELS 3 Zrotation Xrotation Yrotation
                  End Site
                  {
                    OFFSET 2.33842 -0.294052 0.168128
                  }
                }
              }
              JOINT lPinky1
              {
                OFFSET 8.27202 -0.0477905 -0.4584
                CHANNELS 3 Zrotation Xrotation Yrotation
                JOINT lPinky2
                {
                  OFFSET 1.82734 -0.647385 -0.700984
                  CHANNELS 3 Zrotation Xrotation Yrotation
                  End Site
                  {
                    OFFSET 1.69225 -0.51767 -0.607171
                  }
                }
              }
            }
          }
        }
      }
    }
  }
  JOINT rButtock
  {
    OFFSET -8.77824 4.35084 1.2192
    CHANNELS 3 Zrotation Xrotation Yrotation
    JOINT rThigh
    {
      OFFSET 0 -1.70687 -2.19456
      CHANNELS 3 Zrotation Xrotation Yrotation
      JOINT rShin
      {
        OFFSET 0 -36.8199 0.73152
        CHANNELS 3 Zrotation Xrotation Yrotation
        JOINT rFoot
        {
          OFFSET 0.73152 -45.1104 -5.12064
          CHANNELS 3 Zrotation Xrotation Yrotation
          End Site
          {
            OFFSET -1.1221 -3.69964 12.103
          }
        }
      }
    }
  }
  JOINT lButtock
  {
    OFFSET 8.77824 4.35084 1.2192
    CHANNELS 3 Zrotation Xrotation Yrotation
    JOINT lThigh
    {
      OFFSET 0 -1.70687 -2.19456
      CHANNELS 3 Zrotation Xrotation Yrotation
      JOINT lShin
      {
        OFFSET 0 -36.8199 0.73152
        CHANNELS 3 Zrotation Xrotation Yrotation
        JOINT lFoot
        {
          OFFSET -0.73152 -45.1104 -5.12064
          CHANNELS 3 Zrotation Xrotation Yrotation
          End Site
          {
            OFFSET 1.1221 -3.69964 12.103
          }
        }
      }
    }
  }
}
MOTION
Frames:	5
Frame Time:	0.03333
3.8763 73.8591 11.498899999999999 -2.130101 61.377904 1.032707 0.801716 2.568585 -45.830482 4.205978 -3.349214 42.544347 -11.793442 11.228618 -15.908514 14.032382 -13.586436 5.608087 -32.224496 -6.737615 23.035813 -53.301775 -2.444824 4.869197 -147.910021 11.061198 151.038085 2.249662 0.335889 -26.348029 -179.981317 -0.695776 -73.405243 -8.183341 62.174044 4.716139 88.560817 -32.87401 39.306179 -131.089111 42.974963 100.752693 -173.644864 -37.09135 112.446124 -5.131196 31.831477 -27.176576 -44.543618 38.3266 50.156356 31.114545 63.026203 -22.751229 -4.979995 0.423756 -11.25638 23.190367 -14.960597 16.74835 -161.071345 -21.150977 -121.71303 -158.414811 -12.58856 -76.85094 141.47721 39.005837 -146.708749 21.873809 22.584166 30.521418 170.598421 0.799653 74.832397 -1.621596 47.495833 2.23925 15.166943 5.664981 0.534105 145.363444 -18.600533 -87.864588 51.235382 29.7276 -43.621704 6.682121 46.728208 2.280691 44.10955 47.053146 -35.611093 171.583289 -34.501289 -148.439221 3.607218 -4.538021 -14.599516 1.474562 51.504406 4.112297 171.121855 57.793083 136.216088 109.059673 1.311648 101.821726 -135.057545 75.390653 -30.706786 165.756228 35.835751 -156.558864 -39.168383 -61.107651 162.939742 117.007713 -56.679213 22.405034 1.708552 -9.544076 -1.884079 -9.864072 -26.96323 -37.421563 -56.911035 41.389925 -39.156216 87.181972 -35.121133 164.765357
4.6041 74.2385 11.6526 -1.98024 61.561525 1.343905 0.939643 -0.710451 -127.089262 1.496413 1.546459 122.690412 1.708564 23.158436 119.640014 -24.392425 17.17172 -127.908661 -37.645171 -7.602329 22.059071 -48.296865 -5.897994 13.109424 2.958732 -1.405805 7.503578 -2.108979 1.362648 43.371938 166.651951 45.016301 48.775266 150.569097 -31.985913 141.400734 -161.706395 -1.827935 70.78972 -88.779512 -2.075635 15.026445 -45.990078 30.487654 35.562738 167.138285 -28.26861 82.507198 -148.885227 -2.448718 122.527242 22.074014 6.053242 25.340299 -38.632908 -51.163599 -49.619776 -127.964755 -3.170554 170.170147 163.124449 47.201784 -141.194711 164.040193 27.740235 178.964987 142.024303 39.003149 -147.617285 28.307562 9.087783 32.185254 69.431846 32.666265 104.395545 -46.784048 -48.021657 -38.067633 5.475073 -3.994758 1.013498 4.199341 -14.963453 -11.125265 171.970102 -38.265129 -109.833606 161.269969 -14.784098 -105.405441 164.514108 -9.783938 -139.403169 0.715196 27.250066 -6.523455 -3.028187 -45.659651 -4.306004 168.657777 -45.550212 -179.444109 -3.05721 10.070724 6.063013 41.680504 69.072715 -35.088686 -132.717992 75.724711 -32.55965 164.221256 36.293165 -180.0 -0.285153 -73.680057 -81.138491 119.475291 83.415667 151.863989 129.845605 84.101101 50.303967 170.326276 49.225739 -16.712875 -49.754459 47.026709 -37.11864 -127.62152 76.497414 -144.882996
5.3009 74.5915 11.8092 -1.839618 61.958531 1.392251 1.173438 0.677754 -100.505643 3.506748 0.615549 95.087211 0.382534 18.289375 91.902798 -23.833861 2.55039 -102.275706 -39.325672 -7.292739 20.22449 -49.655312 -4.740811 10.225684 101.79003 -84.315275 77.164861 36.973982 31.102739 18.147246 -173.119853 -37.985722 42.523632 137.995993 -46.04141 129.628519 -4.98872 -0.857527 19.633771 -141.041284 -75.094862 116.770339 -177.428755 -43.366433 109.051206 -175.552335 -46.604816 132.326539 38.157042 -38.540784 21.245564 158.389728 -62.938031 155.879132 -6.974361 1.566675 -13.584056 37.89936 -37.272691 25.25065 -111.483425 -46.394486 -72.874542 8.750668 -5.695721 -65.759133 154.494907 -3.330114 -162.816126 -115.400655 43.846107 96.874843 -170.698488 -44.117181 -30.421401 -148.941496 -29.411933 -138.902524 15.658121 6.53143 -0.543196 51.408946 10.6704 -38.163722 143.532936 -1.645977 -109.214952 59.004298 48.219381 -48.101619 151.563883 17.151942 -135.555352 162.610984 -40.383881 -150.516789 80.961549 59.043614 -92.719649 -75.086351 87.801009 55.018199 80.12493 -40.315589 77.678872 -15.911557 -3.977498 -43.251717 -132.185006 75.619553 -32.858439 162.220203 37.712667 10.814745 -12.383678 73.875283 -88.814599 158.371501 -61.502792 -104.826236 -73.886671 51.809375 -67.387825 104.287521 24.434796 56.24783 12.859739 65.159073 -120.991336 3.866239 35.775861 121.00975
6.0408 74.77329999999999 11.9633 -1.824069 62.371515 1.533817 -1.42654 3.392522 0.025087 2.468391 -6.677579 -6.100515 -2.651967 25.632004 133.720008 -24.252543 19.552095 -139.415487 -37.928913 -6.14101 17.744714 -45.619919 -6.449482 15.2606 -19.173097 38.166973 27.549916 118.234735 -59.605155 135.264886 -74.544074 -26.913713 102.079456 24.383441 -30.238419 20.179064 4.121341 -7.306474 19.799334 -119.265157 -54.355311 132.062235 -135.660951 3.981856 104.573946 -177.047198 -10.792357 115.366735 -142.051404 5.970212 120.277186 -9.146849 40.04435 40.115085 1.789037 64.065513 2.071232 -96.817919 67.227131 83.337386 -159.431749 -26.222568 -117.382447 165.8645 6.919222 -88.888835 156.496948 -24.837515 -168.227305 70.196323 -40.913952 108.248662 -70.558358 -23.434014 156.214624 -174.126276 45.733872 -159.713745 165.965759 5.316047 -89.15581 175.081919 -30.124074 -104.776835 58.980111 34.4518 -45.68126 -16.685892 3.025744 6.310415 152.597715 13.123526 -137.779001 -19.31968 -24.987771 7.125708 135.103755 33.947309 -147.091773 -21.647799 8.963512 0.519637 -14.743056 28.511928 5.308077 116.87519 -51.142342 65.867634 -123.07517 75.098131 -38.813243 158.408805 35.452192 -109.737058 -67.276277 -35.031065 45.793085 -130.959211 -51.446074 -20.39706 41.231288 1.52216 33.931795 -61.271946 -7.985827 -16.216821 35.516801 67.278188 114.830875 -124.430648 -36.337537 155.754966
6.8528 74.8403 12.1352 -1.770751 62.501755 1.819919 0.551874 -0.194316 -109.396686 3.271511 1.416644 102.546946 -23.326569 18.399719 -65.02453 30.640383 11.040405 55.418157 -36.432514 -3.999149 12.111493 -40.314698 -8.029676 21.648835 -151.338471 1.336404 149.869202 44.320805 42.97391 -37.31707 4.057287 -73.887232 -135.460075 140.024271 -43.622364 131.961684 9.540033 -11.658662 20.38677 31.328918 -33.245544 -26.879551 -122.851198 14.788641 98.398343 -2.556501 0.598936 -5.226717 -44.270696 36.949324 52.362899 28.819994 54.71908 -26.431276 -80.130336 -58.071648 -90.323905 41.591838 2.61436 -6.685372 -57.42233 -27.305222 -22.280018 -109.298857 69.343429 -140.098691 -0.643153 -0.621862 3.409176 -69.669124 -22.592772 -80.968659 -122.036673 20.238592 -32.496296 -171.384003 33.41701 -158.15425 16.172168 8.378229 -1.270379 93.817019 7.935797 -71.236388 7.379978 1.520146 -7.506813 172.64958 -44.416484 -115.827145 37.686371 53.739501 -32.857272 2.802669 -0.785693 9.613018 78.904766 55.39159 -90.055579 -25.147331 13.240166 8.12838 21.372829 -24.402702 26.886799 30.849941 9.838701 -45.188118 -0.504118 -3.662793 -7.841974 7.886968 -35.978778 13.268032 15.621023 74.98761 -120.711819 167.636672 -9.90599 -85.911329 1.971169 -8.960288 -2.19807 -11.004996 -28.05953 -5.421231 -17.333541 60.209587 -40.312806 167.500104 -45.297756 -103.303779
